<svg id="visual" viewBox="0 0 900 600" width="900" height="600" xmlns="http://www.w3.org/2000/svg" xmlns:xlink="http://www.w3.org/1999/xlink" version="1.1"><path d="M0 133L15 136C30 139 60 145 90 152C120 159 150 167 180 164C210 161 240 147 270 147C300 147 330 161 360 167C390 173 420 171 450 168C480 165 510 161 540 170C570 179 600 201 630 212C660 223 690 223 720 217C750 211 780 199 810 187C840 175 870 163 885 157L900 151L900 0L885 0C870 0 840 0 810 0C780 0 750 0 720 0C690 0 660 0 630 0C600 0 570 0 540 0C510 0 480 0 450 0C420 0 390 0 360 0C330 0 300 0 270 0C240 0 210 0 180 0C150 0 120 0 90 0C60 0 30 0 15 0L0 0Z" fill="#05221b"></path><path d="M0 217L15 214C30 211 60 205 90 207C120 209 150 219 180 217C210 215 240 201 270 206C300 211 330 235 360 246C390 257 420 255 450 248C480 241 510 229 540 237C570 245 600 273 630 281C660 289 690 277 720 264C750 251 780 237 810 228C840 219 870 215 885 213L900 211L900 149L885 155C870 161 840 173 810 185C780 197 750 209 720 215C690 221 660 221 630 210C600 199 570 177 540 168C510 159 480 163 450 166C420 169 390 171 360 165C330 159 300 145 270 145C240 145 210 159 180 162C150 165 120 157 90 150C60 143 30 137 15 134L0 131Z" fill="#002c22"></path><path d="M0 277L15 273C30 269 60 261 90 260C120 259 150 265 180 263C210 261 240 251 270 262C300 273 330 305 360 319C390 333 420 329 450 315C480 301 510 277 540 285C570 293 600 333 630 345C660 357 690 341 720 324C750 307 780 289 810 277C840 265 870 259 885 256L900 253L900 209L885 211C870 213 840 217 810 226C780 235 750 249 720 262C690 275 660 287 630 279C600 271 570 243 540 235C510 227 480 239 450 246C420 253 390 255 360 244C330 233 300 209 270 204C240 199 210 213 180 215C150 217 120 207 90 205C60 203 30 209 15 212L0 215Z" fill="#006b55"></path><path d="M0 349L15 344C30 339 60 329 90 330C120 331 150 343 180 342C210 341 240 327 270 332C300 337 330 361 360 374C390 387 420 389 450 378C480 367 510 343 540 350C570 357 600 395 630 409C660 423 690 413 720 397C750 381 780 359 810 352C840 345 870 353 885 357L900 361L900 251L885 254C870 257 840 263 810 275C780 287 750 305 720 322C690 339 660 355 630 343C600 331 570 291 540 283C510 275 480 299 450 313C420 327 390 331 360 317C330 303 300 271 270 260C240 249 210 259 180 261C150 263 120 257 90 258C60 259 30 267 15 271L0 275Z" fill="#006b55"></path><path d="M0 427L15 427C30 427 60 427 90 432C120 437 150 447 180 451C210 455 240 453 270 454C300 455 330 459 360 462C390 465 420 467 450 464C480 461 510 453 540 459C570 465 600 485 630 496C660 507 690 509 720 493C750 477 780 443 810 439C840 435 870 461 885 474L900 487L900 359L885 355C870 351 840 343 810 350C780 357 750 379 720 395C690 411 660 421 630 407C600 393 570 355 540 348C510 341 480 365 450 376C420 387 390 385 360 372C330 359 300 335 270 330C240 325 210 339 180 340C150 341 120 329 90 328C60 327 30 337 15 342L0 347Z" fill="#002c22"></path><path d="M0 601L15 601C30 601 60 601 90 601C120 601 150 601 180 601C210 601 240 601 270 601C300 601 330 601 360 601C390 601 420 601 450 601C480 601 510 601 540 601C570 601 600 601 630 601C660 601 690 601 720 601C750 601 780 601 810 601C840 601 870 601 885 601L900 601L900 485L885 472C870 459 840 433 810 437C780 441 750 475 720 491C690 507 660 505 630 494C600 483 570 463 540 457C510 451 480 459 450 462C420 465 390 463 360 460C330 457 300 453 270 452C240 451 210 453 180 449C150 445 120 435 90 430C60 425 30 425 15 425L0 425Z" fill="#05221b"></path></svg>