<?xml version="1.0" encoding="UTF-8"?>
<svg width="752pt" height="752pt" version="1.1" viewBox="0 0 752 752" xmlns="http://www.w3.org/2000/svg">
 <g fill="#fff">
  <path d="m373.94 568.39-6.8984-0.61719c-26.477-2.5352-46.129-25.977-43.805-52.25l8.9453-62.566c0.69531-8.0195-5.4414-15.609-14.035-16.727l-41.023-4.7891c-28.062-3.6523-49.117-27.453-49.117-55.383v-33.207c0-5.6445 4.6094-10.215 10.297-10.215h275.37c5.6875 0 10.297 4.5703 10.297 10.215v33.207c0 27.93-21.055 51.73-48.98 55.363l-41.285 4.8281c-8.4648 1.0977-14.598 8.6875-13.844 17.258l8.8203 61.469c2.3828 26.824-17.27 50.266-43.746 52.801zm-125.34-215.32v22.992c0 17.707 13.355 32.797 31.066 35.113l41.02 4.7891c19.699 2.5625 33.672 19.832 31.949 39.324l-8.9453 62.566c-1.2773 14.613 10.059 28.129 25.336 29.598l5.9102 0.57031 8.0195-0.57031c15.277-1.4648 26.613-14.984 25.273-30.145l-8.8203-61.469c-1.7852-20.039 12.191-37.309 31.758-39.852l41.281-4.8281c17.574-2.293 30.93-17.387 30.93-35.094v-22.992z"/>
  <path d="m391.06 517.97c0 8.2852-6.7695 15.004-15.125 15.004s-15.125-6.7188-15.125-15.004 6.7695-15.004 15.125-15.004 15.125 6.7188 15.125 15.004"/>
  <path d="m375.94 536.8c-10.469 0-18.988-8.4492-18.988-18.832s8.5195-18.832 18.988-18.832 18.988 8.4492 18.988 18.832-8.5195 18.832-18.988 18.832zm0-30.004c-6.2109 0-11.266 5.0078-11.266 11.172s5.0547 11.172 11.266 11.172 11.266-5.0078 11.266-11.172c-0.003906-6.1641-5.0547-11.172-11.266-11.172z"/>
  <path d="m503.4 351.84h-255.82c-5.4414 0-9.9414-4.1992-10.277-9.5781l-9.2695-147.8c-0.17578-2.8242 0.82812-5.5742 2.7773-7.6328 1.9453-2.0508 4.6602-3.2188 7.5-3.2188h275.39c2.8555 0 5.582 1.1758 7.5273 3.2422 1.9492 2.0742 2.9414 4.8477 2.7461 7.6797l-10.297 147.8c-0.37109 5.3477-4.8633 9.5039-10.273 9.5039zm-246.14-20.426h236.54l8.875-127.38h-253.4z"/>
  <path d="m242.63 262.79c9.8438 20.996 29.523 21.258 45.832 0l3.0625-4.043c6.0117-7.9375 18.027-7.9023 23.996 0.066406l2.9805 3.9766c16.895 22.852 31.754 19.281 45.484 0l13.953-19.039c6.3633-8.6797 19.621-8.0117 25.062 1.2656l10.422 17.773 8.6797 12.469c5.5078 7.9141 16.816 9.1367 23.918 2.5859l16.32-15.059c17.309-18.672 30.457-11.023 46.551 0l4.8047-68.961-275.39 0.003907z"/>
  <path d="m435.2 287.17c-0.76562 0-1.5352-0.039063-2.2969-0.12109-6.0781-0.66797-11.562-3.9102-15.035-8.8984l-8.6797-12.469-10.629-18.113c-1.6992-2.8945-4.6172-4.6602-7.9961-4.8281-3.3828-0.25-6.4688 1.2773-8.4531 4l-13.949 19.043c-8.5234 11.969-17.199 17.855-26.492 17.934h-0.19531c-9.332 0-18.207-5.8672-27.121-17.914l-2.957-3.9609c-1.8672-2.4844-4.7383-3.9219-7.8633-3.9297h-0.023438c-3.1172 0-5.9805 1.418-7.8555 3.8984l-3.0664 4.0391c-9.6797 12.609-21.023 18.863-31.922 17.746-9.4648-1.0156-17.523-7.6406-22.691-18.664-0.27344-0.57812-0.43359-1.1953-0.47266-1.8359l-4.3242-68.957c-0.089844-1.4062 0.41406-2.793 1.3867-3.8203 0.96875-1.0273 2.3281-1.6055 3.75-1.6055h275.39c1.4297 0 2.7891 0.58984 3.7656 1.625 0.96875 1.0273 1.4688 2.4258 1.3711 3.832l-4.8086 68.957c-0.12891 1.8359-1.2383 3.4531-2.9062 4.25-1.6641 0.79688-3.6289 0.64844-5.1602-0.39844-15.832-10.824-25.5-16.219-39.832-0.73828l-16.605 15.344c-3.918 3.6094-9.043 5.5859-14.328 5.5859zm-45.152-54.652c0.34375 0 0.69531 0 1.0391 0.019531 6.8203 0.34766 12.934 4.0508 16.367 9.9062l10.418 17.777 8.4688 12.129c1.7734 2.5547 4.5703 4.2109 7.6797 4.5469 3.1328 0.32812 6.207-0.6875 8.4922-2.793l16.316-15.062c17.355-18.742 32.625-13.387 45.535-5.3984l3.8164-54.715h-264.39l3.9219 62.543c2.6055 5.2266 7.0742 11.223 14.051 11.969 7.0312 0.71875 15.316-4.2578 22.605-13.754l3.0469-4.0195c3.8359-5.0664 9.6953-7.9688 16.086-7.9688h0.050781c6.4062 0.019531 12.281 2.9531 16.105 8.0508l2.9766 3.9883c6.793 9.1953 13.621 14.035 18.938 13.766 5.6641-0.050781 11.789-4.6484 18.215-13.668l13.988-19.102c3.8125-5.1953 9.8359-8.2148 16.27-8.2148z"/>
 </g>
</svg>

